<svg id="Layer_1" data-name="Layer 1" xmlns="http://www.w3.org/2000/svg" viewBox="0 0 208.28 99.97"><defs><style>.cls-1{fill:#263165;}.cls-2{fill:#d02226;}</style></defs><title>Hoko Four Logo</title><path class="cls-1" d="M65.74,71.81H76.05V85.05h11V71.81H97.38V107.6H87.07V94.1h-11v13.5H65.74Z" transform="translate(-7.1 -70.84)"/><path class="cls-1" d="M120.89,70.84c11.17-.15,19.87,8,19.72,18.86.15,10.57-8.7,19.06-19.72,18.86-11.07.2-19.87-8.29-19.66-18.86C101,78.83,109.82,70.69,120.89,70.84Zm0,9.56c-5,0-8.74,3.89-8.74,9.3S116,99,120.89,99s8.75-3.94,8.75-9.25S125.9,80.4,120.89,80.4Z" transform="translate(-7.1 -70.84)"/><path class="cls-1" d="M158.76,94.76l-4,4.55v8.29H144.45V71.81h10.31v5.25c0,2.94-.15,6.37-.5,10.37h.1a69.66,69.66,0,0,1,5.06-7.08l6.87-8.54h12.39L165.79,86.72,179,107.6H166.64Z" transform="translate(-7.1 -70.84)"/><path class="cls-1" d="M195.66,70.84c11.18-.15,19.87,8,19.72,18.86.15,10.57-8.7,19.06-19.72,18.86-11.07.2-19.86-8.29-19.66-18.86C175.8,78.83,184.59,70.69,195.66,70.84Zm0,9.56c-5,0-8.74,3.89-8.74,9.3S190.81,99,195.66,99s8.75-3.94,8.75-9.25S200.67,80.4,195.66,80.4Z" transform="translate(-7.1 -70.84)"/><path class="cls-1" d="M88.13,114.39l1,8.69h-13v5.66H87.48V137H76.05v13.2H65.74V114.39Z" transform="translate(-7.1 -70.84)"/><path class="cls-1" d="M110.73,113.43c11.17-.16,19.87,8,19.72,18.85.15,10.57-8.7,19.06-19.72,18.86-11.07.2-19.87-8.29-19.66-18.86C90.86,121.41,99.66,113.27,110.73,113.43Zm0,9.55c-5,0-8.74,3.89-8.74,9.3s3.89,9.25,8.74,9.25,8.75-3.94,8.75-9.25S115.74,123,110.73,123Z" transform="translate(-7.1 -70.84)"/><path class="cls-1" d="M134,114.39h10.31V133.5c0,5.91,1.57,8,5.61,8s5.61-2.12,5.61-8V114.39h10.32v20.07c0,10.87-5.36,16.68-15.93,16.68-10.92,0-15.92-5.51-15.92-16.63Z" transform="translate(-7.1 -70.84)"/><path class="cls-1" d="M191,150.27l-8.09-12.48h-1.66v12.48H170.74V114.39h13.8c9.56,0,14.31,4,14.31,12,0,4.5-2,7.83-5.86,9.6l10.3,14.25Zm-9.75-20.16h2.93c3.13,0,4.7-1.21,4.7-3.69s-1.57-3.79-4.7-3.79h-2.93Z" transform="translate(-7.1 -70.84)"/><path class="cls-1" d="M71.68,165.19H69.23v5.49H67V157.16h4.67c3.21,0,4.79,1.83,4.79,4C76.47,163.11,75.2,165.19,71.68,165.19Zm0-1.81c1.73,0,2.51-.83,2.51-2.2S73.41,159,71.68,159H69.23v4.41Z" transform="translate(-7.1 -70.84)"/><path class="cls-1" d="M89.09,157.16c3.21,0,4.79,1.85,4.79,4a3.84,3.84,0,0,1-3.13,3.87l3.34,5.61H91.45l-3.11-5.41h-1.7v5.41H84.43V157.16Zm0,1.81H86.64v4.53h2.45c1.73,0,2.51-.95,2.51-2.3S90.82,159,89.09,159Z" transform="translate(-7.1 -70.84)"/><path class="cls-1" d="M108.72,170.81a6.92,6.92,0,1,1,6.91-6.92A6.76,6.76,0,0,1,108.72,170.81Zm0-1.92c2.69,0,4.63-1.95,4.63-5s-1.94-5-4.63-5-4.63,1.9-4.63,5S106,168.89,108.72,168.89Z" transform="translate(-7.1 -70.84)"/><path class="cls-1" d="M128.78,157.16H131v9.74a4,4,0,0,1-8,0h2.24c0,1.13.56,1.95,1.75,1.95s1.75-.82,1.75-1.95Z" transform="translate(-7.1 -70.84)"/><path class="cls-1" d="M147.92,159h-5.25v4h4.67v1.81h-4.67v4.15h5.25v1.81h-7.47V157.14h7.47Z" transform="translate(-7.1 -70.84)"/><path class="cls-1" d="M162.65,157a6.44,6.44,0,0,1,6.28,4.07h-2.66a3.78,3.78,0,0,0-3.62-2.12c-2.69,0-4.63,1.9-4.63,5s1.94,5,4.63,5a3.78,3.78,0,0,0,3.62-2.12h2.66a6.43,6.43,0,0,1-6.28,4,6.91,6.91,0,1,1,0-13.81Z" transform="translate(-7.1 -70.84)"/><path class="cls-1" d="M176.66,157.16h9.43V159h-3.6v11.71h-2.22V159h-3.61Z" transform="translate(-7.1 -70.84)"/><path class="cls-1" d="M198.62,170.81c-2.7,0-4.79-1.48-4.79-3.87h2.38a2.16,2.16,0,0,0,2.41,2c1.55,0,2.43-.83,2.43-2,0-3.27-7.18-1.15-7.18-6.13,0-2.37,1.89-3.85,4.65-3.85,2.59,0,4.42,1.37,4.61,3.68h-2.45a2.12,2.12,0,0,0-2.28-1.79c-1.28,0-2.27.58-2.27,1.89,0,3.05,7.16,1.14,7.16,6.08C203.29,168.87,201.63,170.81,198.62,170.81Z" transform="translate(-7.1 -70.84)"/><path class="cls-2" d="M46.64,70.84v52.72h-6V110.38H20.28v59.51h7v-52.5h6.37v13.18h20V70.84Z" transform="translate(-7.1 -70.84)"/><path class="cls-2" d="M40.27,144.05H53.64v-7h-20v32.84h7V144.05" transform="translate(-7.1 -70.84)"/><path class="cls-2" d="M33.66,70.84V97.4H27.29V70.84H7.1v99h7v-92h6.17v26.56H40.67V70.84Z" transform="translate(-7.1 -70.84)"/><rect class="cls-2" x="38.41" y="81.81" width="8.13" height="6.01"/></svg>